PathFileType	4	(X/Y/Z)	..\data\2015026\dynamic\2015026_C5_03.trc
DataRate	CameraRate	NumFrames	NumMarkers	Units	OrigDataRate	OrigDataStartFrame	OrigNumFrames
100.000000	100.000000	4	48	mm	100.000000	68	136
Frame#	Time	L_IAS			L_IPS			R_IPS			R_IAS			L_FTC			L_FLE			L_FAX			L_TTC			L_FAL			L_FCC			L_FM1			L_FM2			L_FM5			R_FTC			R_FLE			R_FAX			R_TTC			R_FAL			R_FCC			R_FM1			R_FM2			R_FM5			CV7			TV10			SXS			SJN			L_SIA			L_SRS			L_SAA			L_SAE			L_HLE			L_HME			L_UOA			L_RSP			L_UHE			L_HM2			L_HM5			R_SIA			R_SRS			R_SAA			R_SAE			R_HLE			R_HME			R_UOA			R_RSP			R_UHE			R_HM2			R_HM5			
		X1	Y1	Z1	X2	Y2	Z2	X3	Y3	Z3	X4	Y4	Z4	X5	Y5	Z5	X6	Y6	Z6	X7	Y7	Z7	X8	Y8	Z8	X9	Y9	Z9	X10	Y10	Z10	X11	Y11	Z11	X12	Y12	Z12	X13	Y13	Z13	X14	Y14	Z14	X15	Y15	Z15	X16	Y16	Z16	X17	Y17	Z17	X18	Y18	Z18	X19	Y19	Z19	X20	Y20	Z20	X21	Y21	Z21	X22	Y22	Z22	X23	Y23	Z23	X24	Y24	Z24	X25	Y25	Z25	X26	Y26	Z26	X27	Y27	Z27	X28	Y28	Z28	X29	Y29	Z29	X30	Y30	Z30	X31	Y31	Z31	X32	Y32	Z32	X33	Y33	Z33	X34	Y34	Z34	X35	Y35	Z35	X36	Y36	Z36	X37	Y37	Z37	X38	Y38	Z38	X39	Y39	Z39	X40	Y40	Z40	X41	Y41	Z41	X42	Y42	Z42	X43	Y43	Z43	X44	Y44	Z44	X45	Y45	Z45	X46	Y46	Z46	X47	Y47	Z47	X48	Y48	Z48	

69	0.68	-120.3732833862305	959.7503051757815	65.89832305908203	-309.9318542480469	958.635192871094	115.9790573120117	-306.9135131835938	953.8692626953127	229.0521087646485	-120.9442138671876	942.2315673828127	289.8418884277344	-183.8196563720703	881.5943603515627	-6.13065862655642	-134.6309204101563	456.708709716797	70.11187744140625	-160.0158386230469	404.8633422851564	65.31660461425781	-103.7192916870118	394.717987060547	122.4416275024414	-193.8478698730469	65.13364410400392	91.51457214355467	-244.623260498047	18.80617713928223	123.232048034668	-58.69832229614261	18.65595436096192	176.8518218994141	-46.33925628662112	35.5170021057129	123.5238952636719	-87.06751251220706	18.73749923706055	65.39137268066406	-214.1920166015626	849.9966430664065	341.5284729003907	-78.80319213867193	468.8428649902345	305.2538146972657	-124.0858154296876	435.1673583984376	299.4412536621094	-73.20561981201176	388.6528625488282	268.3323364257813	-357.3773803710939	183.4293365478516	261.225830078125	-407.4435119628907	171.2019805908203	206.3776092529297	-257.8942565917969	51.85127639770509	228.5142974853516	-267.1900024414064	67.23794555664064	274.8070068359375	-314.5273437500001	81.48807525634767	308.2252502441406	-276.6971435546876	1439.349243164063	180.6951141357422	-343.8332824707032	1198.648193359375	169.9069366455078	-119.555046081543	1142.178100585938	166.21728515625	-152.8242187500001	1356.144897460938	168.3934478759766	-347.2138061523438	1236.38671875	93.60216522216794	-323.8095397949219	1368.36962890625	93.39929199218747	-280.7764892578126	1379.78173828125	10.33528327941891	-240.4021453857422	1380.941162109375	-10.75588893890384	-247.6064758300782	1071.816528320313	-76.20345306396489	-287.7070007324219	1060.006225585938	-2.820811748504674	-285.9234619140626	1056.050415039063	-51.34750366210942	-170.9664459228516	835.5853271484377	-36.28675079345706	-237.2324829101563	838.699157714844	-81.59986877441411	-155.0685424804688	753.8472900390626	-44.47463989257815	-248.3722076416016	765.4151000976564	-84.81841278076176	-346.5348205566407	1237.139038085938	256.194580078125	-320.8095703125001	1368.1904296875	227.43115234375	-269.5711975097657	1381.608154296875	331.8912963867188	-215.5158996582032	1378.670532226563	353.0946960449219	-240.8145751953126	1064.195922851563	407.3266906738282	-276.6465148925782	1051.093994140625	337.8293762207031	-277.9658813476564	1041.5556640625	385.5578308105469	-128.4766693115235	837.2452392578127	379.4460449218751	-203.8767395019532	822.789001464844	398.2072753906251	-104.8025817871094	752.5466308593751	385.4720764160157	-206.5682067871095	752.4746704101564	401.4159545898439	
70	0.6900000000000001	-104.3019027709961	960.8597412109377	64.99872589111328	-293.4410705566407	960.8399047851565	115.975227355957	-289.8793640136719	956.7588500976565	228.9409484863282	-104.0831756591797	944.5474243164065	288.9250793457032	-168.6864776611328	882.0847167968752	-6.262808322906516	-131.8078765869141	456.6109008789064	70.51963806152344	-158.1784057617188	405.0047607421876	65.59114074707031	-101.7930297851563	394.2732238769532	123.0501327514649	-193.8649291992188	65.1994094848633	91.76481628417967	-244.732879638672	19.03931045532227	123.4125213623047	-58.64216613769535	18.31926345825196	176.986068725586	-46.21923065185549	35.22179031372071	123.7449111938477	-87.05307769775393	18.62458992004395	65.59261322021484	-197.0283966064454	853.0018310546877	341.7159118652344	-50.79578018188482	474.147430419922	303.9497070312501	-94.62882232666021	437.6942138671876	298.2171630859376	-41.98451232910161	393.9213867187501	266.5539855957032	-314.3934631347657	172.6674041748047	261.4591674804688	-364.8687438964844	156.6997528076172	207.2213439941406	-206.5100708007813	48.76545333862306	227.3907775878907	-215.8101654052735	63.87136840820314	273.9250183105469	-263.7221679687501	74.47668457031251	307.9154052734375	-259.5045471191407	1441.234497070313	180.5518493652344	-326.5818786621094	1200.702880859375	169.1136016845703	-102.397087097168	1144.482666015625	165.8039245605469	-135.5524139404297	1358.181640625	168.2188568115234	-329.8701171875001	1238.6044921875	92.55516052246091	-306.6271362304688	1370.446533203125	93.07268524169919	-263.4981689453126	1382.281127929688	10.16771125793454	-223.0514221191407	1383.605102539063	-10.7609844207764	-226.0910339355469	1074.02587890625	-76.59471130371098	-266.6622924804688	1062.063842773438	-3.410451173782382	-264.4682312011719	1057.396728515625	-51.98817062377935	-143.3248291015625	840.1403808593752	-34.16166687011721	-209.2017211914063	841.079772949219	-79.86847686767582	-123.9240036010742	759.1866455078126	-42.99785232543947	-217.5954589843751	767.5264892578126	-83.76919555664067	-329.5097961425782	1238.623168945313	254.8825073242188	-303.6864624023438	1369.853515625	226.853759765625	-252.9546661376954	1383.149658203125	331.365966796875	-199.1346893310548	1380.19775390625	353.0537109375001	-229.0524291992189	1065.86083984375	406.0323486328126	-264.417938232422	1053.945068359375	336.5120544433594	-266.4503173828126	1044.677978515625	383.9381408691406	-123.9191207885743	835.4626464843752	380.5722656250001	-199.9190063476564	823.6126098632815	398.7633056640626	-103.4109954833985	749.8725585937501	386.7615966796876	-205.1335449218751	753.4788818359376	402.1788940429689	
71	0.7000000000000001	-88.10774230957034	961.4217529296877	64.19880676269531	-276.9071655273438	962.4320068359377	116.1219253540039	-272.8202514648438	959.095886230469	229.0186920166016	-87.16220092773442	946.2744140625002	288.0523376464844	-153.3833312988282	882.1401367187502	-6.328342914581319	-129.042709350586	456.5147705078126	70.91538238525391	-156.3517303466797	405.1860351562501	65.82680511474609	-99.91625213623051	393.8632202148439	123.6730422973633	-193.8468780517579	65.32227325439455	92.03283691406249	-244.8345184326173	19.34752082824707	123.6146774291992	-58.58549499511722	17.88346672058106	177.1273651123047	-46.06304931640627	34.81538009643555	123.9606552124024	-87.07104492187503	18.46243667602539	65.77557373046875	-179.5189819335938	855.424499511719	342.1001586914063	-23.58003044128422	478.885711669922	302.6094360351563	-65.77694702148443	439.542449951172	297.0696411132813	-11.44272994995121	398.7887268066407	264.7444763183594	-270.4039916992189	161.2898559570313	262.0028381347656	-320.9927978515626	141.7383270263672	208.4181823730469	-154.6862030029297	45.70920562744141	226.0748138427735	-163.9862976074219	60.33654785156251	272.8668212890626	-212.2025756835938	67.19689941406251	307.5281982421876	-242.3016815185548	1442.593994140625	180.3286285400391	-309.3050537109376	1202.245361328125	168.3607177734375	-85.17853546142581	1146.291870117188	165.3711242675782	-118.2772445678711	1359.734130859375	168.0032501220703	-312.4781188964844	1240.2607421875	91.52476501464841	-289.4142456054688	1371.966918945313	92.68165588378905	-246.1804351806641	1384.187377929688	9.919738769531222	-205.661605834961	1385.682006835938	-10.82084083557132	-204.7794799804688	1075.677368164063	-77.11727142333989	-245.7070922851563	1063.589233398438	-4.076426506042512	-243.1326141357422	1058.191650390625	-52.71248626708989	-115.6993179321289	844.4995117187502	-31.96504783630373	-181.1302185058594	843.1414794921877	-78.02988433837895	-92.86860656738283	764.3995361328126	-41.19985961914065	-186.6915130615235	769.399108886719	-82.39073181152348	-312.4249267578126	1239.625366210938	253.596908569336	-286.5370788574219	1371.009765625	226.2228088378907	-236.2738037109376	1384.212280273438	330.8017272949219	-182.6790008544923	1381.248657226563	352.9440917968751	-217.2429656982423	1067.197387695313	404.8003540039064	-252.1604614257813	1056.388671875	335.3081665039062	-254.8235931396486	1047.400756835938	382.4152526855469	-119.3558425903321	833.6370239257815	381.8026123046876	-195.8557281494142	824.3794555664065	399.3765869140626	-102.0622558593751	747.2348022460939	388.046356201172	-203.5903625488282	754.5070190429689	402.9218750000001	
72	0.71	-71.79170989990237	961.3986816406252	63.50072097778321	-260.3345031738282	963.3697509765627	116.4170150756836	-255.7394561767579	960.8066406250002	229.2899017333985	-70.15811157226567	947.3697509765627	287.2226867675782	-137.9632568359375	881.7396240234377	-6.354374408721942	-126.2854995727539	456.4043884277345	71.24845123291016	-154.4654998779297	405.3954162597657	65.98330688476562	-98.03195190429692	393.4622802734376	124.2439117431641	-193.7875061035157	65.50760650634767	92.30358123779295	-244.9046020507813	19.72347831726075	123.8363647460938	-58.53666305541996	17.40763092041016	177.2660217285157	-45.88554382324221	34.34880447387696	124.1491012573242	-87.12181091308597	18.28225326538086	65.92720794677734	-161.6724090576172	857.2060546875002	342.6281127929688	2.787375211715662	482.9376525878907	301.2716674804688	-37.56900405883793	440.6649475097657	296.0248718261719	18.35895919799802	403.1788024902345	262.9702148437501	-225.3852539062501	149.6052703857422	262.8363647460938	-275.7127380371094	126.6635665893555	209.9095916748047	-102.4374008178712	42.88817214965821	224.7488708496094	-111.7719802856446	56.88202285766603	271.7983398437501	-160.027572631836	59.98995971679689	307.1668090820313	-225.0885162353516	1443.391357421875	180.0310363769531	-292.0149230957032	1203.230224609375	167.6531677246094	-67.90965270996097	1147.538818359375	164.9310150146485	-101.0036544799805	1360.750732421875	167.7539672851563	-295.0550842285157	1241.315063476563	90.53688812255857	-272.1694641113282	1372.898559570313	92.23012542724608	-228.8197174072266	1385.443359375	9.588876724243137	-188.2279968261719	1387.107666015625	-10.94180393218997	-183.669418334961	1076.724609375	-77.78320312500004	-224.8440246582032	1064.505737304688	-4.835776329040556	-221.9111022949219	1058.3828125	-53.53779220581059	-88.11933898925783	848.625183105469	-29.71830558776857	-153.0439453125	844.859069824219	-76.11223602294925	-61.9491081237793	769.4585571289065	-39.06705474853517	-155.7097320556641	770.9973754882815	-80.66619110107425	-295.2889709472657	1240.129760742188	252.3725128173828	-269.3657226562501	1371.630004882813	225.5528106689453	-219.5265655517579	1384.763671875	330.2131652832032	-166.1467437744141	1381.785400390625	352.7752685546876	-205.3544311523439	1068.172241210938	403.6431884765626	-239.8273010253907	1058.361938476563	334.2005310058594	-243.0387420654298	1049.6640625	380.9949035644531	-114.716049194336	831.7158813476565	383.1375122070313	-191.6263427734376	825.0440063476565	400.0618591308595	-100.7020645141602	744.5859375000001	389.3370971679689	-201.8773345947267	755.5142211914064	403.6568298339845	
